<?xml version="1.0" encoding="UTF-8"?>
<svg id="Layer_4" data-name="Layer 4" xmlns="http://www.w3.org/2000/svg" viewBox="0 0 191.46 291.67">
  <defs>
    <style>
      .cls-1 {
        fill: #2cbbd4;
      }

      .cls-2 {
        fill: #f6891f;
      }
    </style>
  </defs>
  <path class="cls-1" d="m136.5,225.28c-15.49,22.13-30.98,44.26-46.47,66.39-4.97-8.84-10.16-17.78-15.57-26.81-11.81-19.7-23.78-38.29-35.73-55.79l-15,6,87.04-87.66h57.97c7.02,47.13-25.56,89.48-32.24,97.87Z"/>
  <path d="m66.98,168.11c-16.02,16.28-32.04,32.56-48.06,48.83,5.69-11.11,11.38-22.22,17.06-33.33-1.63-5.58-3.27-11.17-4.9-16.75-6.03-2.58-12.06-5.16-18.1-7.75.51-8.24,1.01-16.48,1.51-24.72,5.17-2.09,10.33-4.18,15.49-6.28.04-.23.09-.46.14-.7h40.34c-3.16,4.53-4.7,8.7-5.31,10.54-5,14.95.59,27.52,1.83,30.16Z"/>
  <g>
    <rect class="cls-2" x="0" y="108.69" width="191.46" height="18.71" rx="6.64" ry="6.64"/>
    <path class="cls-2" d="m181.39,102.17c-.1-14.07-2.63-46.7-26.57-71.65-5.15-5.36-10.53-9.6-15.75-12.97-1.31,3.3-2.61,6.58-3.92,9.88-2.82,7.12-5.64,14.25-8.47,21.37-.83-8.74-1.68-17.48-2.51-26.2-.31-3.17-.6-6.36-.91-9.53-.71-7.4-6.94-13.07-14.38-13.07h-27.19c-7.22,0-13.32,5.33-14.31,12.48-.47,3.35-.93,6.71-1.38,10.07-1.24,9.01-2.5,18.02-3.74,27.04-2.65-7.29-5.3-14.57-7.93-21.88-1.33-3.59-2.62-7.18-3.94-10.79-3.53,2.63-7.04,5.61-10.44,9-18.03,17.99-25.72,40.26-29.02,58.18-1.41,7.61-2.02,14.43-2.29,19.82h172.76c0-.55,0-1.13-.01-1.75Zm-66.58-40.39c-.51,3.89-1.97,11.17-7.07,18.61-3.99,5.81-8.6,9.39-11.65,11.39-3.07-1.72-8.81-5.5-13.43-12.48-5.17-7.8-6.16-15.44-6.39-19l-1.05-12.43h41.03c-.48,4.64-.96,9.28-1.44,13.91Z"/>
  </g>
</svg>